<?xml version="1.0" encoding="iso-8859-1"?>
<!-- Generator: Adobe Illustrator 19.0.0, SVG Export Plug-In . SVG Version: 6.00 Build 0)  -->
<svg xmlns="http://www.w3.org/2000/svg" xmlns:xlink="http://www.w3.org/1999/xlink" version="1.1" id="Capa_1" x="0px" y="0px" viewBox="0 0 480 480" style="enable-background:new 0 0 480 480;" xml:space="preserve" width="512px" height="512px">
<g>
	<g>
		<path d="M392.864,289.312L380.8,299.768c20.232,23.432,24.376,36.8,24.24,39.592l15.936,0.808    C421.528,329.176,411.288,310.64,392.864,289.312z" fill="#FFFFFF"/>
	</g>
</g>
<g>
	<g>
		<path d="M121.648,132.552l-3.032,15.712c4.88,0.944,10.021,2.093,15.424,3.448l3.92-15.504    C132.248,134.763,126.811,133.544,121.648,132.552z" fill="#FFFFFF"/>
	</g>
</g>
<g>
	<g>
		<path d="M70.344,130.616l3.76,15.552c4.521-0.965,9.138-1.402,13.76-1.304c5.121,0.033,10.236,0.358,15.32,0.976l1.856-15.888    C93.519,128.229,81.791,128.453,70.344,130.616z" fill="#FFFFFF"/>
	</g>
</g>
<g>
	<g>
		<path d="M388.992,240.112c9.28-8.603,17.712-17.2,25.296-25.792c3.126,1.077,6.406,1.645,9.712,1.68c17.673,0,32-14.327,32-32    c-0.027-7.699-2.873-15.121-8-20.864c6.528-17.024,6.52-31.528-0.176-43.136c-12.52-21.68-46.456-28.392-95.584-18.864    c-12.803,2.542-25.459,5.776-37.912,9.688C299.808,46.992,274.176,0,240,0c-34.176,0-59.808,46.992-74.352,110.824    c-12.453-3.912-25.109-7.146-37.912-9.688C78.624,91.6,44.672,98.304,32.152,120c-5.208,9.032-8.584,24.68,2.2,48.64    c-6.561,6-10.314,14.47-10.352,23.36c0,17.673,14.327,32,32,32c5.216-0.043,10.339-1.378,14.912-3.888    c6.208,6.68,12.8,13.376,20.064,20.064C42.952,284.696,15.064,330.4,32.152,360c8.8,15.256,28.2,23.096,56,23.096    c13.294-0.153,26.543-1.57,39.568-4.232c12.803-2.542,25.459-5.776,37.912-9.688C180.192,433.008,205.824,480,240,480    c13.966-0.733,26.887-7.622,35.28-18.808c3.995,1.821,8.33,2.777,12.72,2.808c17.673,0,32-14.327,32-32    c0.03-11.154-5.831-21.496-15.416-27.2c3.933-11.683,7.266-23.56,9.984-35.584c12.385,3.872,24.968,7.076,37.696,9.6    c13.025,2.662,26.274,4.079,39.568,4.232c27.816,0,47.2-7.848,56-23.096C464.92,330.352,437.024,284.632,388.992,240.112z M56,208    c-8.837,0-16-7.163-16-16c0.045-5.773,3.197-11.075,8.248-13.872c2.354-1.374,5.027-2.107,7.752-2.128c8.837,0,16,7.163,16,16    C71.892,200.792,64.792,207.892,56,208z M82.72,209.488c0.912-1.403,1.714-2.874,2.4-4.4c0.144-0.304,0.232-0.632,0.36-0.944    c0.638-1.528,1.154-3.103,1.544-4.712c0.128-0.512,0.248-1.024,0.352-1.544c0.392-1.939,0.601-3.91,0.624-5.888    c0-17.673-14.327-32-32-32c-1.321,0.001-2.641,0.086-3.952,0.256c-0.408,0.056-0.8,0.168-1.216,0.232    c-0.8,0.144-1.688,0.272-2.52,0.488c-4.68-10.744-7.76-23.52-2.304-32.976c8.712-15.104,37.384-19.2,78.68-11.16    c12.731,2.542,25.31,5.789,37.68,9.728c-3.992,21.077-6.802,42.361-8.416,63.752c-17.697,12.081-34.707,25.139-50.952,39.112    C95.8,222.784,88.896,216.112,82.72,209.488z M152.695,269.442c-13.52-9.591-26.091-19.493-37.735-29.45    c11.368-9.752,24-19.632,37.776-29.456C152.248,220.344,152,230.184,152,240C152,249.806,152.248,259.644,152.695,269.442z     M124.688,363.2c-41.296,8-69.968,3.944-78.68-11.2c-10.92-18.92,10.184-58.152,56.856-101.272    c16.277,13.967,33.334,26.999,51.088,39.032c1.63,21.365,4.45,42.622,8.448,63.672C150.02,357.385,137.43,360.646,124.688,363.2z     M309.168,179.128c-8.264-5.296-16.664-10.4-25.168-15.336c-8.504-4.936-17.216-9.608-25.824-14.104    c15.072-6.896,29.944-13.016,44.352-18.112C305.304,146.328,307.552,162.224,309.168,179.128z M240,16    c21.84,0,45.256,37.864,59.264,99.808c-20.206,7.116-39.993,15.372-59.264,24.728c-19.271-9.357-39.058-17.612-59.264-24.728    C194.744,53.864,218.16,16,240,16z M177.472,131.576c14.4,5.096,29.28,11.2,44.352,18.112    c-8.608,4.496-17.224,9.136-25.824,14.104c-8.6,4.968-16.904,10.04-25.168,15.336    C172.432,162.224,174.696,146.328,177.472,131.576z M170.872,300.856c8.216,5.232,16.56,10.4,25.168,15.352    c8.608,4.952,17.176,9.608,25.784,14.104l0.04,0c-15.072,6.896-29.944,13.016-44.352,18.112    C174.736,333.672,172.488,317.768,170.872,300.856z M269.88,405.672c-1.58,1.082-3.061,2.303-4.424,3.648    c-0.272,0.272-0.48,0.592-0.744,0.872c-1.143,1.188-2.194,2.461-3.144,3.808c-0.464,0.68-0.8,1.448-1.2,2.16    c-1.424,2.115-2.428,4.483-2.96,6.976c-0.232,0.8-0.56,1.528-0.728,2.336c-0.928,4.286-0.906,8.723,0.064,13    c0.128,0.6,0.288,1.184,0.448,1.776c0.436,1.617,1.003,3.195,1.696,4.72c0.208,0.472,0.384,0.96,0.624,1.424    c0.876,1.755,1.915,3.424,3.104,4.984C257.232,458.627,248.998,463.223,240,464c-21.84,0-45.256-37.864-59.264-99.808    c20.206-7.116,39.993-15.372,59.264-24.728c19.286,9.364,39.089,17.625,59.312,24.744c-2.647,12.111-5.937,24.072-9.856,35.832    c-0.2,0-0.392,0-0.6,0S288.28,400,288,400c-0.728,0-1.408,0.168-2.128,0.216c-1.362,0.05-2.719,0.187-4.064,0.408    c-0.416,0.08-0.8,0.232-1.208,0.328c-1.703,0.372-3.371,0.891-4.984,1.552c-0.12,0.048-0.232,0.12-0.352,0.176    c-1.785,0.763-3.494,1.692-5.104,2.776C270.056,405.52,269.976,405.6,269.88,405.672z M288,448c-8.777-0.141-15.859-7.223-16-16    c0-8.837,7.163-16,16-16c1.524,0.033,3.036,0.287,4.488,0.752c6.819,1.931,11.522,8.161,11.512,15.248    C304,440.837,296.837,448,288,448z M302.52,348.424c-14.4-5.096-29.272-11.2-44.344-18.112    c8.608-4.496,17.224-9.136,25.824-14.104c8.6-4.968,16.896-10.08,25.064-15.272C307.464,317.432,305.312,333.376,302.52,348.424z     M310.672,280.832C299.552,288.2,287.992,295.4,276,302.32c-11.992,6.92-24,13.328-36,19.288c-12-5.96-24-12.36-36-19.288    c-12-6.928-23.576-14.112-34.728-21.504C168.456,267.72,168,254.104,168,240s0.456-27.712,1.272-40.8    c10.96-7.291,22.536-14.475,34.728-21.552c12-6.928,24-13.328,36-19.288c12,5.96,24,12.36,36,19.288    c12.208,7.051,23.784,14.224,34.728,21.52c0.8,13.12,1.272,26.736,1.272,40.8C312,253.76,311.52,267.416,310.672,280.832z     M436.748,193.717C433.721,197.697,429,200.024,424,200c-2.759-0.022-5.464-0.773-7.84-2.176    c-5.036-2.776-8.163-8.073-8.16-13.824c0-8.837,7.163-16,16-16c3.527,0.02,6.946,1.22,9.712,3.408    C440.711,176.73,442.07,186.718,436.748,193.717z M355.312,116.84c12.214-2.5,24.638-3.839,37.104-4    c21.216,0,35.792,5.168,41.6,15.2c3.689,8.166,3.843,17.493,0.424,25.776h-0.088c-1.04-0.36-2.12-0.576-3.2-0.8    c-0.632-0.144-1.24-0.368-1.88-0.48c-17.432-2.912-33.923,8.859-36.835,26.291c-0.286,1.71-0.432,3.44-0.437,5.173    c0.019,1.801,0.193,3.597,0.52,5.368c0.088,0.488,0.192,0.96,0.296,1.432c0.319,1.455,0.741,2.885,1.264,4.28    c0.112,0.296,0.192,0.6,0.312,0.888c0.67,1.618,1.472,3.178,2.4,4.664c0.232,0.376,0.496,0.736,0.744,1.104    c0.801,1.181,1.678,2.308,2.624,3.376c0.192,0.208,0.328,0.464,0.52,0.672c-7.088,7.872-15.024,15.8-23.616,23.704    c-16.263-14.005-33.295-27.092-51.016-39.2c-1.626-21.381-4.447-42.654-8.448-63.72C329.98,122.628,342.571,119.38,355.312,116.84    z M327.304,210.536L327.304,210.536c13.816,9.84,26.44,19.72,37.816,29.488c-11.632,9.952-24.272,19.8-37.816,29.424    C327.72,259.744,328,249.952,328,240C328,230.184,327.752,220.344,327.304,210.536z M433.992,352    c-8.712,15.096-37.392,19.2-78.68,11.2c-12.629-2.508-25.109-5.713-37.384-9.6c3.966-21.094,6.718-42.398,8.24-63.808    c17.741-11.99,34.782-24.985,51.04-38.92C423.832,293.888,444.904,333.088,433.992,352z" fill="#FFFFFF"/>
	</g>
</g>
<g>
	<g>
		<path d="M392.136,128.864c-18.653,0.551-37.162,3.454-55.088,8.64l4.16,15.456c16.556-4.882,33.674-7.604,50.928-8.096h1.52    l0.232-16H392.136z" fill="#FFFFFF"/>
	</g>
</g>
<g>
	<g>
		<path d="M111.704,286.264l-11.416-11.2C74.16,301.656,58.344,326.6,59.024,340.16c0.139,2.799,1.732,5.32,4.2,6.648    c7.75,3.39,16.199,4.874,24.64,4.328v-16c-3.914,0.048-7.825-0.244-11.688-0.872C79.376,325.712,89.472,308.896,111.704,286.264z" fill="#FFFFFF"/>
	</g>
</g>
<g>
	<g>
		<path d="M236.44,33.096c-10.96,5.448-20.64,25.736-25.432,37.352l14.792,6.096c8.6-20.84,15.888-28.192,17.76-29.12L236.44,33.096    z" fill="#FFFFFF"/>
	</g>
</g>
<g>
	<g>
		<path d="M217.6,380.16l-15.288,4.64c4.909,18.475,12.773,36.035,23.288,52l12.8-9.6C229.035,412.712,222.015,396.837,217.6,380.16    z" fill="#FFFFFF"/>
	</g>
</g>
<g>
	<g>
		<path d="M240,208c-17.673,0-32,14.327-32,32s14.327,32,32,32c17.673,0,32-14.327,32-32S257.673,208,240,208z M240,256    c-8.837,0-16-7.163-16-16s7.163-16,16-16s16,7.163,16,16S248.837,256,240,256z" fill="#FFFFFF"/>
	</g>
</g>
<g>
</g>
<g>
</g>
<g>
</g>
<g>
</g>
<g>
</g>
<g>
</g>
<g>
</g>
<g>
</g>
<g>
</g>
<g>
</g>
<g>
</g>
<g>
</g>
<g>
</g>
<g>
</g>
<g>
</g>
</svg>
